<svg xmlns="http://www.w3.org/2000/svg" width="512" height="512" viewBox="0 0 512 512" fill="none">
  <rect width="512" height="512" rx="128" fill="#2E6B56"/>
  <path d="M140 160C140 148.954 148.954 140 160 140H352C363.046 140 372 148.954 372 160V352C372 363.046 363.046 372 352 372H160C148.954 372 140 363.046 140 352V160Z" fill="white" fill-opacity="0.1"/>
  <path d="M170 180H340V332C340 343.046 331.046 352 320 352H190C178.954 352 170 343.046 170 332V180Z" stroke="white" stroke-width="24" stroke-linejoin="round"/>
  <path d="M256 180V352" stroke="white" stroke-width="24" stroke-linecap="round"/>
  <path d="M200 230H226" stroke="white" stroke-width="20" stroke-linecap="round"/>
  <path d="M200 276H226" stroke="white" stroke-width="20" stroke-linecap="round"/>
  <path d="M286 230H312" stroke="white" stroke-width="20" stroke-linecap="round"/>
  <path d="M286 276H312" stroke="white" stroke-width="20" stroke-linecap="round"/>
</svg>
